<?xml version="1.0" encoding="UTF-8" standalone="no"?>
<!-- Created with Inkscape (http://www.inkscape.org/) -->

<svg
   xmlns:dc="http://purl.org/dc/elements/1.1/"
   xmlns:cc="http://creativecommons.org/ns#"
   xmlns:rdf="http://www.w3.org/1999/02/22-rdf-syntax-ns#"
   xmlns:svg="http://www.w3.org/2000/svg"
   xmlns="http://www.w3.org/2000/svg"
   xmlns:xlink="http://www.w3.org/1999/xlink"
   xmlns:sodipodi="http://sodipodi.sourceforge.net/DTD/sodipodi-0.dtd"
   xmlns:inkscape="http://www.inkscape.org/namespaces/inkscape"
   width="210mm"
   height="297mm"
   viewBox="0 0 210 297"
   version="1.1"
   id="svg8"
   inkscape:version="0.92.4 (5da689c313, 2019-01-14)"
   sodipodi:docname="logo.svg"
   inkscape:export-filename="C:\Users\Dipesh\Documents\Portfolio Website\img\logo.png"
   inkscape:export-xdpi="96"
   inkscape:export-ydpi="96">
  <defs
     id="defs2" />
  <sodipodi:namedview
     id="base"
     pagecolor="#ffffff"
     bordercolor="#666666"
     borderopacity="1.0"
     inkscape:pageopacity="0.0"
     inkscape:pageshadow="2"
     inkscape:zoom="0.35355339"
     inkscape:cx="574.63248"
     inkscape:cy="903.70867"
     inkscape:document-units="mm"
     inkscape:current-layer="layer1"
     showgrid="false"
     showborder="false"
     inkscape:window-width="1440"
     inkscape:window-height="837"
     inkscape:window-x="-8"
     inkscape:window-y="211"
     inkscape:window-maximized="1" />
  <metadata
     id="metadata5">
    <rdf:RDF>
      <cc:Work
         rdf:about="">
        <dc:format>image/svg+xml</dc:format>
        <dc:type
           rdf:resource="http://purl.org/dc/dcmitype/StillImage" />
        <dc:title></dc:title>
      </cc:Work>
    </rdf:RDF>
  </metadata>
  <g
     inkscape:label="Layer 1"
     inkscape:groupmode="layer"
     id="layer1">
    <path
       sodipodi:type="inkscape:offset"
       inkscape:radius="0"
       inkscape:original="M -5.4257812 83.861328 C -6.1341861 83.861328 -6.7019103 84.109586 -7.1269531 84.605469 C -7.5519959 85.030514 -7.7636719 85.632863 -7.7636719 86.412109 L -7.7636719 155.79883 C -7.7636719 156.50723 -7.5519959 157.10958 -7.1269531 157.60547 C -6.7019103 158.03051 -6.1341861 158.24414 -5.4257812 158.24414 L 19.121094 158.24414 C 26.275982 158.24414 32.012717 157.21648 36.333984 155.16211 C 36.399664 155.13091 36.462207 155.09615 36.527344 155.06445 L 32.099609 146.44141 C 31.562557 146.7931 30.990876 147.11475 30.382812 147.4043 C 27.478352 148.75027 23.548677 149.42383 18.589844 149.42383 L 2.2246094 149.42383 L 2.2246094 92.574219 L 18.056641 92.574219 C 25.42405 92.574219 30.702806 94.238855 33.890625 97.568359 C 37.149289 100.82702 38.848552 105.99799 38.990234 113.08203 C 39.131916 117.19078 39.203125 119.81186 39.203125 120.94531 C 39.203125 122.00791 39.131913 124.66558 38.990234 128.91602 C 38.938674 130.74624 38.806722 132.43789 38.595703 133.99609 L 45.273438 146.82031 C 45.452799 146.49027 45.627538 146.15502 45.791016 145.81055 C 47.845392 141.56012 48.944258 136.06969 49.085938 129.33984 C 49.156777 127.21463 49.191406 124.41649 49.191406 120.94531 C 49.191406 117.47413 49.156776 114.71258 49.085938 112.6582 C 48.944258 103.02389 46.500219 95.832251 41.753906 91.085938 C 37.007596 86.268785 29.286754 83.861328 18.589844 83.861328 L -5.4257812 83.861328 z "
       xlink:href="#path819"
       style="font-style:normal;font-variant:normal;font-weight:normal;font-stretch:normal;font-size:106.26071167px;line-height:1.25;font-family:Rubik;-inkscape-font-specification:'Rubik, Normal';font-variant-ligatures:normal;font-variant-caps:normal;font-variant-numeric:normal;font-feature-settings:normal;text-align:start;letter-spacing:0px;word-spacing:0px;writing-mode:lr-tb;text-anchor:start;opacity:0.55100002;fill:#000000;fill-opacity:1;stroke:none;stroke-width:10.04038239"
       id="path839"
       inkscape:href="#path819"
       d="m -5.4257812,83.861328 c -0.7084049,0 -1.2761291,0.248258 -1.7011719,0.744141 -0.4250428,0.425045 -0.6367188,1.027394 -0.6367188,1.80664 v 69.386721 c 0,0.7084 0.211676,1.31075 0.6367188,1.80664 0.4250428,0.42504 0.992767,0.63867 1.7011719,0.63867 H 19.121094 c 7.154888,0 12.891623,-1.02766 17.21289,-3.08203 0.06568,-0.0312 0.128223,-0.066 0.19336,-0.0977 l -4.427735,-8.62304 c -0.537052,0.35169 -1.108733,0.67334 -1.716797,0.96289 -2.90446,1.34597 -6.834135,2.01953 -11.792968,2.01953 H 2.2246094 V 92.574219 H 18.056641 c 7.367409,0 12.646165,1.664636 15.833984,4.99414 3.258664,3.258661 4.957927,8.429631 5.099609,15.513671 0.141682,4.10875 0.212891,6.72983 0.212891,7.86328 0,1.0626 -0.07121,3.72027 -0.212891,7.97071 -0.05156,1.83022 -0.183512,3.52187 -0.394531,5.08007 l 6.677735,12.82422 c 0.179361,-0.33004 0.3541,-0.66529 0.517578,-1.00976 2.054376,-4.25043 3.153242,-9.74086 3.294922,-16.47071 0.07084,-2.12521 0.105468,-4.92335 0.105468,-8.39453 0,-3.47118 -0.03463,-6.23273 -0.105468,-8.28711 -0.14168,-9.63431 -2.585719,-16.825949 -7.332032,-21.572262 -4.74631,-4.817153 -12.467152,-7.22461 -23.164062,-7.22461 z"
       inkscape:export-xdpi="96"
       inkscape:export-ydpi="96" />
    <path
       style="font-style:normal;font-variant:normal;font-weight:normal;font-stretch:normal;font-size:106.26071167px;line-height:1.25;font-family:Rubik;-inkscape-font-specification:'Rubik, Normal';font-variant-ligatures:normal;font-variant-caps:normal;font-variant-numeric:normal;font-feature-settings:normal;text-align:start;letter-spacing:0px;word-spacing:0px;writing-mode:lr-tb;text-anchor:start;opacity:1;fill:#ffffff;fill-opacity:1;stroke:none;stroke-width:2.65651774"
       d="m -5.4260252,83.861031 c -0.7084049,0 -1.275112,0.247739 -1.7001548,0.743622 -0.4250428,0.425045 -0.6376871,1.027363 -0.6376871,1.806609 v 69.388008 c 0,0.7084 0.2126443,1.31072 0.6376871,1.80661 0.4250428,0.42504 0.9917499,0.63769 1.7001548,0.63769 H 19.12028 c 7.154888,0 12.892668,-1.02761 17.213935,-3.08198 0.06568,-0.0312 0.128649,-0.0649 0.193786,-0.0966 l -4.428669,-8.62376 c -0.537052,0.35169 -1.107594,0.67421 -1.715657,0.96376 -2.90446,1.34597 -6.835796,2.01849 -11.794629,2.01849 H 2.2246704 V 92.574194 H 18.057296 c 7.367409,0 12.645321,1.665022 15.83314,4.994526 3.258664,3.25866 4.958784,8.42974 5.100466,15.51378 0.141682,4.10875 0.212389,6.72964 0.212389,7.86309 0,1.0626 -0.07071,3.7191 -0.212389,7.96954 -0.05156,1.83022 -0.18379,3.52314 -0.394809,5.08134 l 6.678144,12.82351 c 0.179361,-0.33004 0.353804,-0.66477 0.517282,-1.00924 2.054376,-4.25043 3.152693,-9.74047 3.294372,-16.47032 0.07084,-2.12521 0.105939,-4.92365 0.105939,-8.39483 0,-3.47118 -0.0351,-6.23349 -0.105939,-8.28787 -0.141679,-9.63431 -2.586056,-16.824979 -7.332369,-21.571292 -4.74631,-4.817152 -12.467566,-7.225397 -23.164476,-7.225397 z"
       id="path819"
       inkscape:connector-curvature="0"
       inkscape:export-xdpi="96"
       inkscape:export-ydpi="96" />
    <path
       sodipodi:type="inkscape:offset"
       inkscape:radius="0.00046130185"
       inkscape:original="M 19.845703 114.28906 C 19.066458 114.28906 18.464105 114.53537 18.039062 115.03125 C 17.61402 115.4563 17.400391 116.05865 17.400391 116.83789 L 17.400391 147.79297 L 18.589844 147.79297 C 21.961961 147.79297 24.789213 147.46159 27.070312 146.85156 L 27.070312 133.41406 L 45.134766 168.58789 C 45.914011 170.07554 47.047507 170.81836 48.535156 170.81836 L 51.722656 170.81836 C 53.281145 170.81836 54.414641 170.07554 55.123047 168.58789 L 73.292969 133.41406 L 73.292969 186.22656 C 73.292969 186.93496 73.506595 187.53732 73.931641 188.0332 C 74.356681 188.45824 74.922453 188.66992 75.630859 188.66992 L 80.519531 188.66992 C 81.227937 188.66992 81.795663 188.45824 82.220703 188.0332 C 82.71659 187.53732 82.964844 186.93496 82.964844 186.22656 L 82.964844 116.83789 C 82.964844 116.05865 82.751217 115.4563 82.326172 115.03125 C 81.901132 114.53537 81.298779 114.28906 80.519531 114.28906 L 75.525391 114.28906 C 74.391945 114.28906 73.541336 114.81825 72.974609 115.88086 L 50.128906 159.3418 L 27.496094 115.88086 C 27.000212 114.81825 26.114972 114.28906 24.839844 114.28906 L 19.845703 114.28906 z M 27.070312 159.38672 C 24.623862 159.71207 21.978487 159.875 19.121094 159.875 L 17.400391 159.875 L 17.400391 186.22656 C 17.400391 186.93496 17.61402 187.53732 18.039062 188.0332 C 18.534946 188.45824 19.137298 188.66992 19.845703 188.66992 L 24.626953 188.66992 C 25.335358 188.66992 25.901129 188.45824 26.326172 188.0332 C 26.822056 187.53732 27.070312 186.93496 27.070312 186.22656 L 27.070312 159.38672 z "
       xlink:href="#path821"
       style="font-style:normal;font-variant:normal;font-weight:normal;font-stretch:normal;font-size:106.26071167px;line-height:1.25;font-family:Rubik;-inkscape-font-specification:'Rubik, Normal';font-variant-ligatures:normal;font-variant-caps:normal;font-variant-numeric:normal;font-feature-settings:normal;text-align:start;letter-spacing:0px;word-spacing:0px;writing-mode:lr-tb;text-anchor:start;opacity:0.55100002;fill:#000000;fill-opacity:1;stroke:none;stroke-width:2.65651774"
       id="path826"
       inkscape:href="#path821"
       d="m 19.845703,114.28711 c -0.779245,0 -1.381598,0.24826 -1.806641,0.74414 -0.425042,0.42505 -0.638671,1.0274 -0.638671,1.80664 v 69.38867 c 0,0.7084 0.213629,1.31076 0.638671,1.80664 0.495884,0.42504 1.098236,0.63672 1.806641,0.63672 h 4.78125 c 0.708405,0 1.274176,-0.21168 1.699219,-0.63672 0.495883,-0.49588 0.74414,-1.09824 0.74414,-1.80664 v -52.8125 l 18.064454,35.17383 c 0.779245,1.48765 1.91274,2.23047 3.40039,2.23047 h 3.1875 c 1.558488,0 2.691984,-0.74282 3.400391,-2.23047 l 18.171875,-35.17383 v 52.8125 c 0,0.7084 0.211672,1.31076 0.636719,1.80664 0.42504,0.42504 0.990812,0.63672 1.699218,0.63672 h 4.888672 c 0.708407,0 1.276132,-0.21168 1.701172,-0.63672 0.495887,-0.49588 0.742188,-1.09824 0.742188,-1.80664 v -69.38867 c 0,-0.77924 -0.211672,-1.38159 -0.636719,-1.80664 -0.42504,-0.49588 -1.027394,-0.74414 -1.806641,-0.74414 h -4.99414 c -1.133447,0 -1.984055,0.53114 -2.550782,1.59375 L 50.128906,159.3418 27.496094,115.88086 c -0.495884,-1.06261 -1.381122,-1.59375 -2.65625,-1.59375 z"
       inkscape:export-xdpi="96"
       inkscape:export-ydpi="96" />
    <path
       style="font-style:normal;font-variant:normal;font-weight:normal;font-stretch:normal;font-size:106.26071167px;line-height:1.25;font-family:Rubik;-inkscape-font-specification:'Rubik, Normal';font-variant-ligatures:normal;font-variant-caps:normal;font-variant-numeric:normal;font-feature-settings:normal;text-align:start;letter-spacing:0px;word-spacing:0px;writing-mode:lr-tb;text-anchor:start;opacity:1;fill:#fcec11;fill-opacity:1;stroke:none;stroke-width:10.04038239"
       d="M 75.003906 431.95508 C 72.058727 431.95508 69.782242 432.89143 68.175781 434.76562 C 66.569321 436.3721 65.767578 438.64859 65.767578 441.59375 L 65.767578 558.58789 L 70.261719 558.58789 C 83.006728 558.58789 93.692973 557.33295 102.31445 555.02734 L 102.31445 504.24414 L 170.58789 637.17969 C 173.53307 642.80229 177.81684 645.61328 183.43945 645.61328 L 195.48828 645.61328 C 201.37863 645.61328 205.6624 642.80229 208.33984 637.17969 L 277.01562 504.24414 L 277.01562 703.84766 C 277.01562 706.52507 277.81931 708.80156 279.42578 710.67578 C 281.03223 712.28223 283.17412 713.08594 285.85156 713.08594 L 304.32617 713.08594 C 307.00361 713.08594 309.1455 712.28223 310.75195 710.67578 C 312.62617 708.80156 313.56445 706.52507 313.56445 703.84766 L 313.56445 441.59375 C 313.56445 438.64859 312.76077 436.3721 311.1543 434.76562 C 309.54785 432.89143 307.27136 431.95508 304.32617 431.95508 L 285.45117 431.95508 C 281.16728 431.95508 277.95446 433.96236 275.8125 437.97852 L 189.46484 602.23828 L 103.91992 437.97852 C 102.04572 433.96236 98.700243 431.95508 93.880859 431.95508 L 75.003906 431.95508 z M 102.31445 602.4043 C 93.068021 603.63399 83.069127 604.25195 72.269531 604.25195 L 65.767578 604.25195 L 65.767578 703.84766 C 65.767578 706.52507 66.569321 708.80156 68.175781 710.67578 C 70.049986 712.28223 72.326471 713.08594 75.003906 713.08594 L 93.076172 713.08594 C 95.753607 713.08594 97.895493 712.28223 99.501953 710.67578 C 101.37616 708.80156 102.31445 706.52507 102.31445 703.84766 L 102.31445 602.4043 z "
       id="path821"
       transform="scale(0.26458333)"
       inkscape:export-xdpi="96"
       inkscape:export-ydpi="96" />
    <flowRoot
       xml:space="preserve"
       id="flowRoot853"
       style="fill:black;fill-opacity:1;stroke:none;font-family:sans-serif;font-style:normal;font-weight:normal;font-size:40px;line-height:1.25;letter-spacing:0px;word-spacing:0px"><flowRegion
         id="flowRegion855"><rect
           id="rect857"
           width="12824.089"
           height="548.71484"
           x="325.2691"
           y="293.79053" /></flowRegion><flowPara
         id="flowPara859"></flowPara></flowRoot>  </g>
</svg>
